<?xml version="1.0" standalone="no"?><!DOCTYPE svg PUBLIC "-//W3C//DTD SVG 1.1//EN" "http://www.w3.org/Graphics/SVG/1.1/DTD/svg11.dtd"><svg t="1675783255950" class="icon" viewBox="0 0 1103 1024" version="1.1" xmlns="http://www.w3.org/2000/svg" p-id="11854" xmlns:xlink="http://www.w3.org/1999/xlink" width="215.4296875" height="200"><path d="M803.574932 997.493188c-11.160763 0-20.926431-9.765668-20.926431-20.926431s9.765668-20.926431 20.926431-20.92643c61.384196 0 111.607629-50.223433 111.607629-111.607629V477.122616c0-11.160763 9.765668-20.926431 20.926431-20.926431s20.926431 9.765668 20.92643 20.926431v366.910082c0 85.100817-68.359673 153.46049-153.46049 153.46049zM714.288828 997.493188h-418.52861c-85.100817 0-153.46049-68.359673-153.46049-153.46049V477.122616c0-11.160763 9.765668-20.926431 20.92643-20.926431s20.926431 9.765668 20.926431 20.926431v366.910082c0 61.384196 50.223433 111.607629 111.607629 111.607629h397.60218V645.929155c0-29.297003-36.27248-53.013624-78.125341-53.013624h-129.743869c-43.247956 0-78.125341 23.716621-78.125341 53.013624V711.498638c0 11.160763-9.765668 20.926431-20.92643 20.92643s-20.926431-9.765668-20.926431-20.92643v-65.569483c0-51.618529 54.408719-94.866485 119.978202-94.866485h129.743869c66.964578 0 119.978202 41.852861 119.978202 94.866485V976.566757c0 11.160763-9.765668 20.926431-20.926431 20.926431z" fill="#58e4c1" p-id="11855"></path><path d="M1065.852861 457.591281c-4.185286 0-9.765668-1.395095-13.950954-5.580382l-446.430517-380.861035c-30.692098-26.506812-82.310627-26.506812-113.002725 0l-446.430518 380.861035c-6.975477 8.370572-20.926431 8.370572-27.901907-1.395095-6.975477-8.370572-6.975477-22.321526 1.395095-29.297003l122.768393-111.607629v-108.817439c0-11.160763 9.765668-20.926431 20.92643-20.926431s20.926431 9.765668 20.926431 20.926431v79.520436L465.961853 40.457766c46.038147-39.06267 121.373297-39.06267 167.411444 0l446.430518 380.861035c8.370572 6.975477 9.765668 20.926431 2.79019 29.297003-4.185286 5.580381-11.160763 6.975477-16.741144 6.975477z" fill="#58e4c1" p-id="11856"></path></svg>